<svg xmlns="http://www.w3.org/2000/svg" xmlns:xlink="http://www.w3.org/1999/xlink" preserveAspectRatio="xMidYMid meet" width="100" height="100" xmlns:v="https://vecta.io/nano"><defs><path d="M100 50c0 27.6-22.4 50-50 50S0 77.6 0 50 22.4 0 50 0s50 22.4 50 50z" id="A"/><path d="M45.69 23.21h7.14v22.12h-7.14V23.21z" id="B"/><path d="M45.69 52.86h7.14v22.13h-7.14V52.86z" id="C"/><path d="M74.76 45.33v7.21H53.17v-7.21h21.59z" id="D"/><path d="M45.33 45.33v7.21H23.74v-7.21h21.59z" id="E"/><path d="M51.05 50.9l1.78 1.96h-3.57-3.57l1.78-1.96 1.79-1.96 1.79 1.96z" id="F"/><path d="M47.47 46.97l-1.78-1.96h3.57 3.57l-1.78 1.96-1.79 1.97-1.79-1.97z" id="G"/><path d="M47.3 50.74l-1.97 1.8v-3.6-3.61l1.97 1.81 1.96 1.8-1.96 1.8z" id="H"/><path d="M51.22 47.14l1.96-1.81v3.61 3.6l-1.96-1.8-1.96-1.8 1.96-1.8z" id="I"/></defs><use xlink:href="#A" fill="#fff"/><use xlink:href="#B" fill="#e31818"/><use xlink:href="#C" fill="#1c9920"/><use xlink:href="#D" fill="#03a9f4"/><use xlink:href="#E" fill="#d8c200"/><use xlink:href="#F" fill="#1c9920"/><use xlink:href="#G" fill="#e31818"/><use xlink:href="#H" fill="#d8c200"/><use xlink:href="#I" fill="#03a9f4"/></svg>